<svg width="32" height="32" viewBox="0 0 32 32" fill="none" xmlns="http://www.w3.org/2000/svg">
<path d="M20.19 6H11.81C8.17 6 6 8.17 6 11.81V20.18C6 23.83 8.17 26 11.81 26H20.18C23.82 26 25.99 23.83 25.99 20.19V11.81C26 8.17 23.83 6 20.19 6ZM20.78 13.7L15.11 19.37C14.97 19.51 14.78 19.59 14.58 19.59C14.38 19.59 14.19 19.51 14.05 19.37L11.22 16.54C10.93 16.25 10.93 15.77 11.22 15.48C11.51 15.19 11.99 15.19 12.28 15.48L14.58 17.78L19.72 12.64C20.01 12.35 20.49 12.35 20.78 12.64C21.07 12.93 21.07 13.4 20.78 13.7Z" fill="#FF961B"/>
</svg>
