<svg width="116" height="60" viewBox="0 0 116 60" fill="none" xmlns="http://www.w3.org/2000/svg">
<path fill-rule="evenodd" clip-rule="evenodd" d="M83.1144 52.7425C78.0515 56.789 71.6312 59.2083 64.6458 59.2083C56.1896 59.2083 48.5614 55.6628 43.1668 49.9772C38.7418 55.5986 31.8758 59.2083 24.1667 59.2083C10.8198 59.2083 0 48.3885 0 35.0417C0 21.6948 10.8198 10.875 24.1667 10.875C29.5537 10.875 34.5291 12.6376 38.5475 15.6176C43.5401 6.32111 53.3548 0 64.6458 0C78.4282 0 90.0108 9.41827 93.3088 22.1699C94.5859 21.8948 95.9115 21.75 97.2708 21.75C107.615 21.75 116 30.1353 116 40.4792C116 50.823 107.615 59.2083 97.2708 59.2083C91.6171 59.2083 86.5485 56.7032 83.1144 52.7425Z" fill="#804B0E"/>
</svg>
