<svg width="168" height="169" viewBox="0 0 168 169" fill="none" xmlns="http://www.w3.org/2000/svg">
<g opacity="0.1">
<path opacity="0.4" d="M85.0002 0.88623C130.698 0.88623 167.8 38.4421 167.8 84.6976C167.8 130.953 130.698 168.509 85.0002 168.509C39.3029 168.509 2.2002 130.953 2.2002 84.6976C2.2002 38.4421 39.3029 0.88623 85.0002 0.88623Z" fill="#FF2F2F"/>
</g>
<g opacity="0.2">
<path opacity="0.2" d="M84.1004 0.886307C130.294 0.886307 167.8 38.4422 167.8 84.6977C167.8 130.953 130.294 168.509 84.1004 168.509C37.9064 168.509 0.400391 130.953 0.400391 84.6977C0.400391 38.4422 37.9064 0.886307 84.1004 0.886307Z" fill="#FF2F2F"/>
</g>
<path d="M84.1001 0.886322C130.294 0.886322 167.8 38.4422 167.8 84.6977C167.8 130.953 130.294 168.509 84.1001 168.509C37.9062 168.509 0.400391 130.953 0.400391 84.6977C0.400391 38.4422 37.9062 0.886322 84.1001 0.886322Z" fill="#FF2F2F"/>
<path fill-rule="evenodd" clip-rule="evenodd" d="M115.453 60.1088C117.308 58.2538 117.308 55.2462 115.453 53.3912C113.598 51.5363 110.591 51.5363 108.736 53.3912L84.4223 77.7048L60.1088 53.3912C58.2538 51.5363 55.2462 51.5363 53.3912 53.3912C51.5363 55.2462 51.5363 58.2538 53.3912 60.1088L77.7048 84.4223L53.3912 108.736C51.5363 110.591 51.5363 113.598 53.3912 115.453C55.2462 117.308 58.2538 117.308 60.1088 115.453L84.4223 91.1398L108.736 115.453C110.591 117.308 113.598 117.308 115.453 115.453C117.308 113.598 117.308 110.591 115.453 108.736L91.1398 84.4223L115.453 60.1088Z" fill="#FDFDFD"/>
</svg>
