<svg width="56" height="56" viewBox="0 0 56 56" fill="none" xmlns="http://www.w3.org/2000/svg">
<path d="M23.9167 23.4034C23.9167 24.6634 24.2667 24.85 25.0601 25.13L26.2501 25.55V21.5834H25.5501C24.6634 21.5834 23.9167 22.4 23.9167 23.4034Z" fill="#FF961B"/>
<path d="M29.75 34.4166H30.45C31.36 34.4166 32.0833 33.6 32.0833 32.5966C32.0833 31.3366 31.7333 31.1499 30.94 30.8699L29.75 30.45V34.4166Z" fill="#FF961B"/>
<path d="M45.6868 12.7866L40.9034 17.57C40.5534 17.92 40.1101 18.0833 39.6668 18.0833C39.2234 18.0833 38.7801 17.92 38.4301 17.57C37.7534 16.8933 37.7534 15.7733 38.4301 15.0966L43.2134 10.3133C39.1068 6.81329 33.8101 4.66663 28.0001 4.66663C15.1201 4.66663 4.66675 15.12 4.66675 28C4.66675 40.88 15.1201 51.3333 28.0001 51.3333C40.8801 51.3333 51.3334 40.88 51.3334 28C51.3334 22.19 49.1868 16.8933 45.6868 12.7866ZM32.0834 27.58C33.5767 28.1166 35.5834 29.19 35.5834 32.62C35.5834 35.5366 33.2734 37.94 30.4501 37.94H29.7501V38.5233C29.7501 39.48 28.9567 40.2733 28.0001 40.2733C27.0434 40.2733 26.2501 39.48 26.2501 38.5233V37.94H26.0634C22.9601 37.94 20.4167 35.3266 20.4167 32.1066C20.4167 31.1266 21.2101 30.3333 22.1667 30.3333C23.1234 30.3333 23.9167 31.1266 23.9167 32.0833C23.9167 33.3666 24.8734 34.4166 26.0634 34.4166H26.2501V29.2366L23.9167 28.42C22.4234 27.8833 20.4167 26.81 20.4167 23.38C20.4167 20.4633 22.7267 18.06 25.5501 18.06H26.2501V17.5C26.2501 16.5433 27.0434 15.75 28.0001 15.75C28.9567 15.75 29.7501 16.5433 29.7501 17.5V18.0833H29.9368C33.0401 18.0833 35.5834 20.6966 35.5834 23.9166C35.5834 24.8733 34.7901 25.6666 33.8334 25.6666C32.8767 25.6666 32.0834 24.8733 32.0834 23.9166C32.0834 22.6333 31.1267 21.5833 29.9368 21.5833H29.7501V26.7633L32.0834 27.58Z" fill="#FF961B"/>
<path d="M52.9433 3.98996C52.7567 3.56996 52.43 3.21996 51.9867 3.03329C51.7767 2.96329 51.5667 2.91663 51.3333 2.91663H42C41.0433 2.91663 40.25 3.70996 40.25 4.66663C40.25 5.62329 41.0433 6.41663 42 6.41663H47.11L43.2133 10.3133C44.1 11.0833 44.9167 11.9 45.6867 12.7866L49.5833 8.88996V14C49.5833 14.9566 50.3767 15.75 51.3333 15.75C52.29 15.75 53.0833 14.9566 53.0833 14V4.66663C53.0833 4.43329 53.0367 4.22329 52.9433 3.98996Z" fill="#FF961B"/>
</svg>
