<svg width="32" height="32" viewBox="0 0 32 32" fill="none" xmlns="http://www.w3.org/2000/svg">
<path d="M25.25 13.15C22.94 9.51999 19.56 7.42999 16 7.42999C14.22 7.42999 12.49 7.94999 10.91 8.91999C9.33 9.89999 7.91 11.33 6.75 13.15C5.75 14.72 5.75 17.27 6.75 18.84C9.06 22.48 12.44 24.56 16 24.56C17.78 24.56 19.51 24.04 21.09 23.07C22.67 22.09 24.09 20.66 25.25 18.84C26.25 17.28 26.25 14.72 25.25 13.15ZM16 20.04C13.76 20.04 11.96 18.23 11.96 16C11.96 13.77 13.76 11.96 16 11.96C18.24 11.96 20.04 13.77 20.04 16C20.04 18.23 18.24 20.04 16 20.04Z" fill="#8A8A8A"/>
<path d="M15.9999 13.14C14.4299 13.14 13.1499 14.42 13.1499 16C13.1499 17.57 14.4299 18.85 15.9999 18.85C17.5699 18.85 18.8599 17.57 18.8599 16C18.8599 14.43 17.5699 13.14 15.9999 13.14Z" fill="#8A8A8A"/>
</svg>
