<svg width="32" height="32" viewBox="0 0 32 32" fill="none" xmlns="http://www.w3.org/2000/svg">
<path d="M25.2699 13.18C24.9799 12.72 24.6699 12.29 24.3499 11.89C23.9799 11.42 23.2799 11.38 22.8599 11.8L19.8599 14.8C20.0799 15.46 20.1199 16.22 19.9199 17.01C19.5699 18.42 18.4299 19.56 17.0199 19.91C16.2299 20.11 15.4699 20.07 14.8099 19.85C14.8099 19.85 13.3799 21.28 12.3499 22.31C11.8499 22.81 12.0099 23.69 12.6799 23.95C13.7499 24.36 14.8599 24.57 15.9999 24.57C17.7799 24.57 19.5099 24.05 21.0899 23.08C22.6999 22.08 24.1499 20.61 25.3199 18.74C26.2699 17.23 26.2199 14.69 25.2699 13.18Z" fill="#8A8A8A"/>
<path d="M18.0199 13.98L13.9799 18.02C13.4699 17.5 13.1399 16.78 13.1399 16C13.1399 14.43 14.4199 13.14 15.9999 13.14C16.7799 13.14 17.4999 13.47 18.0199 13.98Z" fill="#8A8A8A"/>
<path d="M22.25 9.74999L18.86 13.14C18.13 12.4 17.12 11.96 16 11.96C13.76 11.96 11.96 13.77 11.96 16C11.96 17.12 12.41 18.13 13.14 18.86L9.76 22.25H9.75C8.64 21.35 7.62 20.2 6.75 18.84C5.75 17.27 5.75 14.72 6.75 13.15C7.91 11.33 9.33 9.89999 10.91 8.91999C12.49 7.95999 14.22 7.42999 16 7.42999C18.23 7.42999 20.39 8.24999 22.25 9.74999Z" fill="#8A8A8A"/>
<path d="M18.8601 16C18.8601 17.57 17.5801 18.86 16.0001 18.86C15.9401 18.86 15.8901 18.86 15.8301 18.84L18.8401 15.83C18.8601 15.89 18.8601 15.94 18.8601 16Z" fill="#8A8A8A"/>
<path d="M25.7699 6.23C25.4699 5.93 24.9799 5.93 24.6799 6.23L6.22988 24.69C5.92988 24.99 5.92988 25.48 6.22988 25.78C6.37988 25.92 6.56988 26 6.76988 26C6.96988 26 7.15988 25.92 7.30988 25.77L25.7699 7.31C26.0799 7.01 26.0799 6.53 25.7699 6.23Z" fill="#8A8A8A"/>
</svg>
