<svg width="720" height="157" viewBox="0 0 720 157" fill="none" xmlns="http://www.w3.org/2000/svg">
<g opacity="0.14">
<path fill-rule="evenodd" clip-rule="evenodd" d="M152.526 157C155.096 155.978 157.707 154.927 160.361 153.847C162.969 152.786 171.868 149.15 173.087 148.653C242.206 120.478 285.458 109.9 360 109.9C433.952 109.9 470.605 119.491 537.326 148.589C544.207 151.59 550.785 154.39 557.127 157H601.949C583.871 151.265 564.948 143.725 542.674 134.011C474.395 104.234 436.048 94.2 360 94.2C283.494 94.2 238.643 105.169 168.044 133.947C166.816 134.448 157.924 138.081 155.327 139.137C137.509 146.386 121.771 152.286 106.916 157H152.526ZM152.526 0C95.4541 22.7018 58.1524 31.4 0 31.4H0L0 15.7C41.3562 15.7 71.6501 11.1913 106.916 0L152.526 0V0ZM557.127 0C613.718 23.2865 651.616 31.4 720 31.4V15.7C670.736 15.7 638.024 11.4438 601.949 0L557.127 0V0ZM0 109.9C60.7716 109.9 98.772 100.401 160.361 75.3469C162.969 74.2859 171.868 70.65 173.087 70.1529C242.206 41.9783 285.458 31.4 360 31.4C433.952 31.4 470.605 40.9909 537.326 70.0885C605.605 99.8659 643.952 109.9 720 109.9V94.2C646.048 94.2 609.395 84.6091 542.674 55.5115C474.395 25.7341 436.048 15.7 360 15.7C283.494 15.7 238.643 26.6695 168.044 55.4471C166.816 55.9479 157.924 59.5812 155.327 60.6373C95.2094 85.0927 58.7773 94.2 0 94.2L0 109.9H0Z" fill="#FFEAD1"/>
</g>
</svg>
